<svg width="16" height="24" xmlns="http://www.w3.org/2000/svg">
 <!-- Created with Method Draw - http://github.com/duopixel/Method-Draw/ -->

 <g>
  <title>background</title>
  <rect fill="none" id="canvas_background" height="26" width="18" y="-1" x="-1"/>
  <g display="none" overflow="visible" y="0" x="0" height="100%" width="100%" id="canvasGrid">
   <rect fill="url(#gridpattern)" stroke-width="0" y="0" x="0" height="100%" width="100%"/>
  </g>
 </g>
 <g>
  <title>Layer 1</title>
  <!-- Generator: Sketch 52.6 (67491) - http://www.bohemiancoding.com/sketch -->
  <desc transform="matrix(0.1874027812309578,0,0,0.1874027812309578,0,0) ">Created with Sketch.</desc>
  <g id="svg_17">
   <g transform="matrix(0.1874027812309578,0,0,0.1874027812309578,0,0) " fill-rule="evenodd" fill="none" id="svg_8">
    <g id="svg_9">
     <g fill="#000000" id="svg_12">
      <path fill-rule="nonzero" id="svg_15" d="m117.45736,78.440546l-7.5,-14.1l-4.2,0l0,14.1l-10.8,0l0,-42.6l17.8,0c5.1,0 9,1.3 11.6,4c2.7,2.7 4,6 4,10.1c0,5.4 -2.5,10.2 -7.8,12.7l9.2,15.8l-12.3,0zm-11.7,-32.8l0,9.2l6.5,0c6.9,0.3 6.4,-9.7 0.4,-9.2l-6.9,0z"/>
      <path fill-rule="nonzero" id="svg_13" d="m164.85736,65.840546l-22.7,0c1.2,3.3 3.7,5 7.8,5c3.5,0 6.7,-1 9.6,-2.9l4,6.9c-4.1,2.9 -8.8,4.4 -14.1,4.4c-5.7,0 -10,-1.6 -13,-4.8c-3.1,-3.2 -4.6,-7.2 -4.6,-11.8c0,-4.8 1.6,-8.8 4.7,-11.9c3.2,-3.2 7.3,-4.8 12.3,-4.8c4.7,0 8.6,1.4 11.7,4.3c3.1,2.8 4.6,6.7 4.6,11.6c0,1.2 -0.1,2.5 -0.3,4zm-22.9,-7l13.5,0c-0.9,-3.1 -3.2,-4.9 -6.6,-4.9c-3.5,0 -5.8,1.6 -6.9,4.9z"/>
      <path id="svg_14" d="m219.25736,49.140546c2.6,2.2 3.9,5.5 3.9,9.9l0,19.4l-10.2,0l0,-17.4c0,-4 -2.2,-6 -5.3,-6c-3.5,0 -5.9,2.4 -5.9,6.3l0,17.1l-10.1,0l0,-17.4c0,-3.7 -2.2,-6 -5.5,-6c-3.3,0 -5.8,2.4 -5.8,6.3l0,17.1l-10.1,0l0,-31.8l9.9,0l0,4.4c1.8,-3.3 5.8,-5.4 9.9,-5.4c4.3,0.1 7.2,1.8 8.8,5.3c2.4,-3.5 6.6,-5.3 11.2,-5.3c3.5,0 6.6,1.2 9.2,3.5z"/>
      <path id="svg_11" d="m278.35736,49.140546c2.6,2.2 3.9,5.5 3.9,9.9l0,19.4l-10.2,0l0,-17.4c0,-4 -2.2,-6 -5.3,-6c-3.5,0 -5.9,2.4 -5.9,6.3l0,17.1l-10.1,0l0,-17.4c0,-3.7 -2.2,-6 -5.5,-6c-3.3,0 -5.8,2.4 -5.8,6.3l0,17.1l-10.1,0l0,-31.8l9.9,0l0,4.4c1.8,-3.3 5.8,-5.4 9.9,-5.4c4.3,0.1 7.2,1.8 8.8,5.3c2.4,-3.5 6.6,-5.3 11.2,-5.3c3.5,0 6.6,1.2 9.2,3.5z"/>
      <path fill-rule="nonzero" id="Shape" d="m319.85736,65.840546l-22.7,0c1.2,3.3 3.7,5 7.8,5c3.5,0 6.7,-1 9.6,-2.9l4,6.9c-4.1,2.9 -8.8,4.4 -14.1,4.4c-5.7,0 -10,-1.6 -13,-4.8c-3.1,-3.2 -4.6,-7.2 -4.6,-11.8c0,-4.8 1.6,-8.8 4.7,-11.9c3.1,-3.1 7.3,-4.8 12.3,-4.8c4.7,0 8.6,1.4 11.7,4.3c3.1,2.9 4.6,6.7 4.6,11.6c0,1.2 -0.1,2.5 -0.3,4zm-22.8,-7l13.5,0c-0.9,-3.1 -3.2,-4.9 -6.6,-4.9c-3.6,0 -5.8,1.6 -6.9,4.9z"/>
     </g>
     <g id="svg_10">
      <path fill="#533A75" id="Path" d="m79.25736,86.240546l-4.2,-9.9l-10.1,4.3l-5.3,-12.6c5.3,-4.9 8.4,-11.8 8.4,-19.3c0,-14.5 -11.8,-26.3 -26.3,-26.3c-14.5,0 -26.3,11.8 -26.3,26.3c0,7.5 3.1,14.4 8.5,19.4l-11.3,26.2l9.9,4.2l4.1,-9.8l10.2,4.3l4.2,-9.9l-10.1,-4.3l6.4,-14.6l-3.9,-2.5c-4.5,-2.9 -7.2,-7.8 -7.2,-13.1c0,-8.5 6.9,-15.5 15.5,-15.5c8.6,0 15.5,6.9 15.5,15.5c0,5.3 -2.7,10.2 -7.1,13l-3.8,2.5l15.5,36.2l9.9,-4.2l-2.5,-5.7l10,-4.2z"/>
      <polygon points="28.65735960006714,112.74053955078125 18.45728635787964,108.44049072265625 22.65735960006714,98.44049072265625 32.85731077194214,102.74053955078125 " fill="#657CBD" id="Path"/>
     </g>
    </g>
   </g>
  </g>
 </g>
</svg>